<svg width="40" height="37" viewBox="0 0 40 37" fill="none" xmlns="http://www.w3.org/2000/svg">
<path d="M38.4523 7.04326H29.113C28.8958 7.04326 28.6879 7.12832 28.5346 7.27946L25.4549 10.3205L31.2739 16.0458L39.03 8.41475C39.5444 7.90861 39.1796 7.04326 38.4523 7.04326Z" fill="white"/>
<path d="M27.62 19.6411C28.2573 19.014 28.258 17.9972 27.6211 17.3695L22.9605 12.7745L22.9566 12.7784L10.7433 0.754474C10.5779 0.591386 10.3535 0.5 10.1196 0.5H0.818462C0.0907646 0.5 -0.273619 1.36535 0.241163 1.87184L15.3917 16.7783C16.358 17.729 16.358 19.271 15.3917 20.2217L0.240806 35.1282C-0.273619 35.6343 0.0907646 36.5 0.818105 36.5H10.1192C10.3532 36.5 10.5775 36.4086 10.7429 36.2459L22.9602 24.2255L27.62 19.6411Z" fill="white"/>
<path d="M38.4527 29.9568L29.113 29.9575C28.8958 29.9575 28.6876 29.8724 28.5343 29.7209L25.4638 26.688L31.2829 20.9627L39.03 28.5849C39.5444 29.0911 39.1801 29.9564 38.4527 29.9568Z" fill="white"/>
</svg>
